<?xml version="1.0" encoding="UTF-8" standalone="no"?>
<!-- Created with Inkscape (http://www.inkscape.org/) -->

<svg
   xmlns:dc="http://purl.org/dc/elements/1.1/"
   xmlns:cc="http://creativecommons.org/ns#"
   xmlns:rdf="http://www.w3.org/1999/02/22-rdf-syntax-ns#"
   xmlns:svg="http://www.w3.org/2000/svg"
   xmlns="http://www.w3.org/2000/svg"
   xmlns:sodipodi="http://sodipodi.sourceforge.net/DTD/sodipodi-0.dtd"
   xmlns:inkscape="http://www.inkscape.org/namespaces/inkscape"
   width="48"
   height="48"
   id="svg2"
   version="1.1"
   inkscape:version="0.47pre4 r22446"
   sodipodi:docname="concentrate.svg">
  <defs
     id="defs4">
    <inkscape:perspective
       sodipodi:type="inkscape:persp3d"
       inkscape:vp_x="0 : 526.18109 : 1"
       inkscape:vp_y="0 : 1000 : 0"
       inkscape:vp_z="744.09448 : 526.18109 : 1"
       inkscape:persp3d-origin="372.04724 : 350.78739 : 1"
       id="perspective10" />
  </defs>
  <sodipodi:namedview
     id="base"
     pagecolor="#ffffff"
     bordercolor="#666666"
     borderopacity="1.0"
     inkscape:pageopacity="0.0"
     inkscape:pageshadow="2"
     inkscape:zoom="8"
     inkscape:cx="5.2289699"
     inkscape:cy="24.753975"
     inkscape:document-units="px"
     inkscape:current-layer="layer1"
     showgrid="false"
     inkscape:window-width="1063"
     inkscape:window-height="793"
     inkscape:window-x="3"
     inkscape:window-y="23"
     inkscape:window-maximized="0" />
  <metadata
     id="metadata7">
    <rdf:RDF>
      <cc:Work
         rdf:about="">
        <dc:format>image/svg+xml</dc:format>
        <dc:type
           rdf:resource="http://purl.org/dc/dcmitype/StillImage" />
        <dc:title />
      </cc:Work>
    </rdf:RDF>
  </metadata>
  <g
     inkscape:label="Layer 1"
     inkscape:groupmode="layer"
     id="layer1"
     transform="translate(0,-1004.3622)">
    <path
       style="opacity:0.5;fill:#ffffff;fill-opacity:0.86082476;fill-rule:nonzero;stroke:none"
       d="m 22.16736,1004.3644 a 1.666161,1.666161 0 0 0 -1.483566,1.7454 l 0.319985,6.1088 -0.989044,-0.1454 a 1.666161,1.666161 0 0 0 -1.396297,2.8507 l 2.996221,2.9381 c -2.164928,0.4979 -4.113532,1.4562 -5.585189,3.0253 l -0.989043,-3.898 a 1.666161,1.666161 0 0 0 -3.141669,-0.2036 l -0.378163,0.9308 -5.1488459,-3.3744 a 1.666161,1.666161 0 0 0 -2.3562514,0.5818 l -1.6581028,2.909 a 1.666161,1.666161 0 0 0 0.6981485,2.2981 l 5.4688304,2.7635 -0.61088,0.7854 a 1.666161,1.666161 0 0 0 1.7744609,2.618 l 3.9561753,-1.1054 c -0.315082,1.022 -0.63997,2.0478 -0.63997,3.1708 0,1.123 0.324888,2.1488 0.63997,3.1708 l -3.9561753,-1.1055 a 1.666161,1.666161 0 0 0 -1.7744609,2.6181 l 0.61088,0.7854 -5.4688304,2.7635 a 1.666161,1.666161 0 0 0 -0.6981485,2.2981 l 1.6581028,2.909 a 1.666161,1.666161 0 0 0 2.3562514,0.5817 l 5.1488459,-3.3743 0.378163,0.9308 a 1.666161,1.666161 0 0 0 3.141669,-0.2036 l 0.989043,-3.898 c 1.471657,1.5691 3.420261,2.5274 5.585189,3.0253 l -2.996221,2.9381 a 1.666161,1.666161 0 0 0 1.396297,2.8507 l 0.989044,-0.1454 -0.319985,6.1088 a 1.666161,1.666161 0 0 0 1.658103,1.7454 l 3.316206,0 a 1.666161,1.666161 0 0 0 1.658102,-1.7454 l -0.319984,-6.1088 0.989043,0.1454 a 1.666161,1.666161 0 0 0 1.396298,-2.8507 l -2.996221,-2.9381 c 2.164928,-0.4979 4.113532,-1.4562 5.585188,-3.0253 l 0.989044,3.898 a 1.666161,1.666161 0 0 0 3.141668,0.2036 l 0.378164,-0.9308 5.148846,3.3743 a 1.666161,1.666161 0 0 0 2.356251,-0.5817 l 1.658103,-2.909 a 1.666161,1.666161 0 0 0 -0.698149,-2.2981 l -5.46883,-2.7635 0.61088,-0.7854 a 1.666161,1.666161 0 0 0 -1.774461,-2.6181 l -3.956175,1.1055 c 0.315082,-1.022 0.63997,-2.0478 0.63997,-3.1708 0,-1.123 -0.324888,-2.1488 -0.63997,-3.1708 l 3.956175,1.1054 a 1.666161,1.666161 0 0 0 1.774461,-2.618 l -0.61088,-0.7854 5.46883,-2.7635 a 1.666161,1.666161 0 0 0 0.698149,-2.2981 l -1.658103,-2.909 a 1.666161,1.666161 0 0 0 -2.356251,-0.5818 l -5.148846,3.3744 -0.378164,-0.9308 a 1.666161,1.666161 0 0 0 -3.141668,0.2036 l -0.989044,3.898 c -1.471656,-1.5691 -3.42026,-2.5274 -5.585188,-3.0253 l 2.996221,-2.9381 a 1.666161,1.666161 0 0 0 -1.396298,-2.8507 l -0.989043,0.1454 0.319984,-6.1088 a 1.666161,1.666161 0 0 0 -1.658102,-1.7454 l -3.316206,0 a 1.666161,1.666161 0 0 0 -0.174537,0 z m 0.174537,1.6581 3.316206,0 -0.436343,8.1451 2.996221,-0.4363 -4.217981,4.1016 -4.217981,-4.1016 2.996221,0.4363 -0.436343,-8.1451 z m -16.8719232,9.7159 6.8360382,4.4798 1.134491,-2.8217 1.454476,5.7016 -5.6724567,1.5999 1.8617297,-2.3853 -7.272381,-3.6653 1.6581028,-2.909 z m 37.0600522,0 1.658103,2.909 -7.272381,3.6653 1.86173,2.3853 -5.672457,-1.5999 1.454476,-5.7016 1.134491,2.8217 6.836038,-4.4798 z M 24,1019.0256 c 5.162538,0 9.337737,4.1751 9.337737,9.3377 0,5.1626 -4.175199,9.3377 -9.337737,9.3377 -5.162539,0 -9.337737,-4.1751 -9.337737,-9.3377 0,-5.1626 4.175198,-9.3377 9.337737,-9.3377 z m -14.7774777,13.003 5.6724567,1.5999 -1.454476,5.7015 -1.134491,-2.8216 -6.8360382,4.4797 -1.6581028,-2.9089 7.272381,-3.6653 -1.8617297,-2.3853 z m 29.5549557,0 -1.86173,2.3853 7.272381,3.6653 -1.658103,2.9089 -6.836038,-4.4797 -1.134491,2.8216 -1.454476,-5.7015 5.672457,-1.5999 z M 24,1038.8937 l 4.217981,4.1016 -2.996221,-0.4363 0.436343,8.145 -3.316206,0 0.436343,-8.145 -2.996221,0.4363 L 24,1038.8937 z"
       id="path2844" />
    <path
       sodipodi:type="inkscape:offset"
       inkscape:radius="0"
       inkscape:original="M 22.21875 0 L 22.6875 8.75 L 19.46875 8.28125 L 24 12.6875 L 28.53125 8.28125 L 25.3125 8.75 L 25.78125 0 L 22.21875 0 z M 4.09375 10.4375 L 2.3125 13.5625 L 10.125 17.5 L 8.125 20.0625 L 14.21875 18.34375 L 12.65625 12.21875 L 11.4375 15.25 L 4.09375 10.4375 z M 43.90625 10.4375 L 36.5625 15.25 L 35.34375 12.21875 L 33.78125 18.34375 L 39.875 20.0625 L 37.875 17.5 L 45.6875 13.5625 L 43.90625 10.4375 z M 24 13.96875 C 18.45404 13.96875 13.96875 18.454 13.96875 24 C 13.96875 29.546 18.45404 34.03125 24 34.03125 C 29.54596 34.03125 34.03125 29.546 34.03125 24 C 34.03125 18.454 29.54596 13.96875 24 13.96875 z M 8.125 27.9375 L 10.125 30.5 L 2.3125 34.4375 L 4.09375 37.5625 L 11.4375 32.75 L 12.65625 35.78125 L 14.21875 29.65625 L 8.125 27.9375 z M 39.875 27.9375 L 33.78125 29.65625 L 35.34375 35.78125 L 36.5625 32.75 L 43.90625 37.5625 L 45.6875 34.4375 L 37.875 30.5 L 39.875 27.9375 z M 24 35.3125 L 19.46875 39.71875 L 22.6875 39.25 L 22.21875 48 L 25.78125 48 L 25.3125 39.25 L 28.53125 39.71875 L 24 35.3125 z "
       style="opacity:0.5;fill:#000000;fill-opacity:0.86082476;fill-rule:nonzero;stroke:none"
       id="path2840"
       d="M 22.21875,0 22.6875,8.75 19.46875,8.28125 24,12.6875 28.53125,8.28125 25.3125,8.75 25.78125,0 22.21875,0 z m -18.125,10.4375 -1.78125,3.125 7.8125,3.9375 -2,2.5625 6.09375,-1.71875 -1.5625,-6.125 L 11.4375,15.25 4.09375,10.4375 z m 39.8125,0 -7.34375,4.8125 -1.21875,-3.03125 -1.5625,6.125 6.09375,1.71875 -2,-2.5625 7.8125,-3.9375 -1.78125,-3.125 z M 24,13.96875 C 18.45404,13.96875 13.96875,18.454 13.96875,24 13.96875,29.546 18.45404,34.03125 24,34.03125 29.54596,34.03125 34.03125,29.546 34.03125,24 34.03125,18.454 29.54596,13.96875 24,13.96875 z M 8.125,27.9375 l 2,2.5625 -7.8125,3.9375 1.78125,3.125 7.34375,-4.8125 1.21875,3.03125 1.5625,-6.125 L 8.125,27.9375 z m 31.75,0 -6.09375,1.71875 1.5625,6.125 1.21875,-3.03125 7.34375,4.8125 1.78125,-3.125 -7.8125,-3.9375 2,-2.5625 z M 24,35.3125 19.46875,39.71875 22.6875,39.25 22.21875,48 25.78125,48 25.3125,39.25 28.53125,39.71875 24,35.3125 z"
       transform="matrix(0.93086474,0,0,0.93086474,1.6592462,1006.0214)" />
  </g>
</svg>
