<?xml version="1.0" encoding="utf-8" ?>
<svg xmlns="http://www.w3.org/2000/svg" width="256" height="256">
  <path
    d="M35.026 1026.914c0 5.546-4.496 10.042-10.042 10.042s-10.042-4.496-10.042-10.042 4.496-10.041 10.042-10.041 10.042 4.495 10.042 10.041"
    style="opacity:.5;fill:#000;fill-opacity:.86082476;fill-rule:nonzero;stroke:none"
    transform="matrix(5.33333 0 0 5.33333 -5.248 -5348.877)"
  />
  <path
    d="m344.892 61.514 9.719 174.031-64.125-9.218 90 88.187 90-88.187-64.125 9.218 9.718-174.03zM416.08 1017.514l-9.72-174.031 64.126 9.219-90-88.188-90 88.188 64.125-9.219-9.72 174.031z"
    style="opacity:.5;fill:#000;fill-opacity:.86082476;fill-rule:nonzero;stroke:none"
    transform="translate(26.113 -16.472)scale(.26778)"
  />
  <path
    d="m344.892 61.514 9.719 174.031-64.125-9.218 90 88.187 90-88.187-64.125 9.218 9.718-174.03zM416.08 1017.514l-9.72-174.031 64.126 9.219-90-88.188-90 88.188 64.125-9.219-9.72 174.031z"
    style="opacity:.5;fill:#000;fill-opacity:.86082476;fill-rule:nonzero;stroke:none"
    transform="rotate(60 129.207 158.85)scale(.26778)"
  />
  <path
    d="m344.892 61.514 9.719 174.031-64.125-9.218 90 88.187 90-88.187-64.125 9.218 9.718-174.03zM416.08 1017.514l-9.72-174.031 64.126 9.219-90-88.188-90 88.188 64.125-9.219-9.72 174.031z"
    style="opacity:.5;fill:#000;fill-opacity:.86082476;fill-rule:nonzero;stroke:none"
    transform="rotate(-60 100.679 113.62)scale(.26778)"
  />
</svg>
