<?xml version="1.0" encoding="UTF-8" standalone="no"?>
<!-- Created with Inkscape (http://www.inkscape.org/) -->

<svg
   xmlns:dc="http://purl.org/dc/elements/1.1/"
   xmlns:cc="http://creativecommons.org/ns#"
   xmlns:rdf="http://www.w3.org/1999/02/22-rdf-syntax-ns#"
   xmlns:svg="http://www.w3.org/2000/svg"
   xmlns="http://www.w3.org/2000/svg"
   xmlns:sodipodi="http://sodipodi.sourceforge.net/DTD/sodipodi-0.dtd"
   xmlns:inkscape="http://www.inkscape.org/namespaces/inkscape"
   width="48"
   height="48"
   id="svg2"
   version="1.1"
   inkscape:version="0.47pre4 r22446"
   sodipodi:docname="New document 1">
  <defs
     id="defs4">
    <inkscape:perspective
       sodipodi:type="inkscape:persp3d"
       inkscape:vp_x="0 : 526.18109 : 1"
       inkscape:vp_y="0 : 1000 : 0"
       inkscape:vp_z="744.09448 : 526.18109 : 1"
       inkscape:persp3d-origin="372.04724 : 350.78739 : 1"
       id="perspective10" />
  </defs>
  <sodipodi:namedview
     id="base"
     pagecolor="#ffffff"
     bordercolor="#666666"
     borderopacity="1.0"
     inkscape:pageopacity="0.0"
     inkscape:pageshadow="2"
     inkscape:zoom="1"
     inkscape:cx="5.4164699"
     inkscape:cy="-40.871025"
     inkscape:document-units="px"
     inkscape:current-layer="layer1"
     showgrid="false"
     inkscape:window-width="1063"
     inkscape:window-height="793"
     inkscape:window-x="3"
     inkscape:window-y="23"
     inkscape:window-maximized="0" />
  <metadata
     id="metadata7">
    <rdf:RDF>
      <cc:Work
         rdf:about="">
        <dc:format>image/svg+xml</dc:format>
        <dc:type
           rdf:resource="http://purl.org/dc/dcmitype/StillImage" />
        <dc:title></dc:title>
      </cc:Work>
    </rdf:RDF>
  </metadata>
  <g
     inkscape:label="Layer 1"
     inkscape:groupmode="layer"
     id="layer1"
     transform="translate(0,-1004.3622)">
    <g
       id="g3960"
       transform="translate(-0.9840033,1.4477874)">
      <path
         style="opacity:0.5;fill:#000000;fill-opacity:0.86082476;fill-rule:nonzero;stroke:none"
         d="m 35.025846,1026.9144 c 0,5.546 -4.495882,10.0418 -10.041842,10.0418 -5.54596,0 -10.04184,-4.4958 -10.04184,-10.0418 0,-5.546 4.49588,-10.0418 10.04184,-10.0418 5.54596,0 10.041842,4.4958 10.041842,10.0418 z"
         id="path3895" />
      <g
         transform="matrix(0.05020921,0,0,0.05020921,5.8801245,999.82583)"
         id="g3897">
        <path
           id="path3899"
           d="m 344.89192,61.514232 9.71875,174.031248 -64.125,-9.21875 90,88.1875 90,-88.1875 -64.125,9.21875 9.71875,-174.031248 -71.1875,0 z"
           style="opacity:0.5;fill:#000000;fill-opacity:0.86082476;fill-rule:nonzero;stroke:none" />
        <path
           style="opacity:0.5;fill:#000000;fill-opacity:0.86082476;fill-rule:nonzero;stroke:none"
           d="m 416.07942,1017.5142 -9.71875,-174.03124 64.125,9.21875 -90,-88.1875 -90,88.1875 64.125,-9.21875 -9.71875,174.03124 71.1875,0 z"
           id="path3901" />
      </g>
      <g
         id="g3905"
         transform="matrix(0.0251046,0.04348245,-0.04348245,0.0251046,38.891461,996.82573)">
        <path
           style="opacity:0.5;fill:#000000;fill-opacity:0.86082476;fill-rule:nonzero;stroke:none"
           d="m 344.89192,61.514232 9.71875,174.031248 -64.125,-9.21875 90,88.1875 90,-88.1875 -64.125,9.21875 9.71875,-174.031248 -71.1875,0 z"
           id="path3907" />
        <path
           id="path3909"
           d="m 416.07942,1017.5142 -9.71875,-174.03124 64.125,9.21875 -90,-88.1875 -90,88.1875 64.125,-9.21875 -9.71875,174.03124 71.1875,0 z"
           style="opacity:0.5;fill:#000000;fill-opacity:0.86082476;fill-rule:nonzero;stroke:none" />
      </g>
      <g
         id="g3911"
         transform="matrix(0.0251046,-0.04348245,0.04348245,0.0251046,-8.0273355,1029.9146)">
        <path
           style="opacity:0.5;fill:#000000;fill-opacity:0.86082476;fill-rule:nonzero;stroke:none"
           d="m 344.89192,61.514232 9.71875,174.031248 -64.125,-9.21875 90,88.1875 90,-88.1875 -64.125,9.21875 9.71875,-174.031248 -71.1875,0 z"
           id="path3913" />
        <path
           id="path3915"
           d="m 416.07942,1017.5142 -9.71875,-174.03124 64.125,9.21875 -90,-88.1875 -90,88.1875 64.125,-9.21875 -9.71875,174.03124 71.1875,0 z"
           style="opacity:0.5;fill:#000000;fill-opacity:0.86082476;fill-rule:nonzero;stroke:none" />
      </g>
    </g>
  </g>
</svg>
